<?xml version="1.0" encoding="UTF-8"?>
<svg width="20px" height="12px" viewBox="0 0 20 12" version="1.1" xmlns="http://www.w3.org/2000/svg" xmlns:xlink="http://www.w3.org/1999/xlink">
    <!-- Generator: sketchtool 52.5 (67469) - http://www.bohemiancoding.com/sketch -->
    <title>B58F6257-FB25-4A52-AD5A-05BE123EB0EC</title>
    <desc>Created with sketchtool.</desc>
    <defs>
        <path d="M21.9986738,14.0128581 C22.0320475,14.7473535 21.4310861,15.3483149 20.6966299,15.3483149 L20.339183,15.3483149 C20.1797483,16.489007 19.2142192,17.3515197 18.0256772,17.3515197 C16.8371351,17.3515197 15.871606,16.489007 15.7121713,15.3483149 L8.3199545,15.3483149 C8.16051975,16.489007 7.19499071,17.3515197 6.00644863,17.3515197 C4.81790656,17.3515197 3.85237752,16.489007 3.69294277,15.3483149 L3.16854915,15.3483149 C2.53417489,15.3483149 2,14.8141009 2,14.1797658 L2,11.1749587 C2,10.9412645 2.10016024,10.740944 2.23369418,10.5739581 C2.40064095,10.4404242 2.60096143,10.3402639 2.83465561,10.3402639 C3.23529656,10.3402639 3.6025638,10.1399435 3.80288428,9.80608903 L5.47223462,7.10176262 C5.9062884,6.43401466 6.64078376,6 7.44206567,6 L14.2529618,6 C15.0542437,6 15.8221519,6.43401466 16.2227929,7.10176262 L17.3579292,8.97143343 C17.8921041,9.80612816 18.8269199,10.3403031 19.7951486,10.3403031 L21.1640182,10.3403031 C21.6314066,10.3403031 21.9986738,10.7075312 21.9986738,11.1749587 L21.9986738,14.0128581 Z M7.3418663,9.33870067 L11.6821302,9.33870067 L11.6821302,8.00324388 L7.3418663,8.00324388 L7.3418663,9.33870067 Z M12.3498782,8.00324388 L12.3498782,9.33870067 L16.7694487,9.33870067 L15.9347931,8.00324388 L12.3498782,8.00324388 Z M6.00640951,14.367175 C6.37367676,14.367175 6.67415747,14.6676557 6.67415747,15.0349229 C6.67415747,15.4021902 6.37367676,15.7026709 6.00640951,15.7026709 C5.63914226,15.7026709 5.33866155,15.4021902 5.33866155,15.0349229 C5.33866155,14.6676557 5.63914226,14.367175 6.00640951,14.367175 Z M6.00640951,16.6837717 C6.94122535,16.6837717 7.67575985,15.9492764 7.67575985,15.0144214 C7.67575985,14.0795664 6.94122535,13.3450711 6.00640951,13.3450711 C5.07155454,13.3450711 4.33705917,14.0796056 4.33705917,15.0144214 C4.33705917,15.9492764 5.07159367,16.6837717 6.00640951,16.6837717 Z M18.025638,14.367175 C18.3929053,14.367175 18.693386,14.6676557 18.693386,15.0349229 C18.693386,15.4021902 18.3929053,15.7026709 18.025638,15.7026709 C17.6583708,15.7026709 17.3578901,15.4021902 17.3578901,15.0349229 C17.3578901,14.6676557 17.6583708,14.367175 18.025638,14.367175 Z M18.025638,16.6837717 C18.9604539,16.6837717 19.6949884,15.9492764 19.6949884,15.0144214 C19.6949884,14.0795664 18.9604539,13.3450711 18.025638,13.3450711 C17.0907831,13.3450711 16.3562877,14.0796056 16.3562877,15.0144214 C16.3562877,15.9492764 17.0908222,16.6837717 18.025638,16.6837717 Z M20.6631779,14.680567 C21.0304452,14.680567 21.3309259,14.3800863 21.330965,14.012819 L21.330965,12.6773622 L20.3627363,12.6773622 C20.1624159,12.6773622 20.0288819,12.5438283 20.0288819,12.3435078 C20.0288819,12.1431873 20.1624159,12.0096534 20.3627363,12.0096534 L21.330965,12.0096534 L21.330965,11.2083715 C21.330965,11.1082112 21.2641785,11.0414247 21.1640182,11.0414247 L19.7951486,11.0414247 C18.8375228,11.0414247 17.9402671,10.6599942 17.2896559,10.0064486 L7.2751189,10.0064486 C6.94126448,10.0064486 6.67415747,9.73934163 6.67415747,9.40548721 L6.67415747,7.93645735 C6.67415747,7.60260293 6.94126448,7.33549592 7.2751189,7.33549592 L15.5239405,7.33549592 C15.2364493,6.9063719 14.7582233,6.66774796 14.2529618,6.66774796 L7.44206567,6.66774796 C6.87447794,6.66774796 6.34030305,6.96822867 6.03982234,7.46902986 L4.370472,10.1733563 C4.06999129,10.6741575 3.46902986,11.0080119 2.86806844,11.0080119 C2.80132103,11.0080119 2.7679082,11.0414247 2.73453449,11.0747984 C2.66774796,11.1081721 2.66774796,11.141585 2.66774796,11.1749587 L2.66774796,12.0096534 L3.66935034,12.0096534 C3.86967081,12.0096534 4.00320475,12.1431873 4.00320475,12.3435078 C4.00320475,12.5438283 3.86967081,12.6773622 3.66935034,12.6773622 L2.66774796,12.6773622 L2.66774796,14.1797658 C2.66774796,14.4468728 2.90144214,14.680567 3.16854915,14.680567 L3.69290364,14.680567 C3.84240062,13.6109261 4.70080516,12.7862865 5.78719161,12.6876912 C5.79513401,12.6869479 5.80319378,12.6865566 5.8111753,12.6858915 C5.83852374,12.6836614 5.86583305,12.6814312 5.89345537,12.6801401 C5.93089808,12.6783404 5.96853642,12.6773231 6.00640951,12.6773231 C6.0442826,12.6773231 6.08192094,12.6783404 6.11936365,12.6801401 C6.14698597,12.6814312 6.17429528,12.6837005 6.20164372,12.6858915 C6.20962524,12.6865566 6.21768501,12.6869479 6.2256274,12.6876912 C7.31201386,12.7862865 8.1704184,13.6109261 8.31991538,14.680567 L15.6885397,14.680567 C15.8554865,13.5454307 16.8236761,12.6773622 17.9922252,12.6773622 C17.9979766,12.6773622 18.0036889,12.6777143 18.0094794,12.6777535 C18.0148786,12.6777143 18.0201996,12.6773622 18.0255989,12.6773622 C19.214141,12.6773622 20.17967,13.5398749 20.3391048,14.680567 L20.6631779,14.680567 Z M13.6853741,11.0285134 C13.8856946,11.0285134 14.0192285,11.1620474 14.0191894,11.3623287 L14.0191894,12.0300767 C14.0191894,12.2303972 13.8856555,12.3639311 13.685335,12.3639311 C13.4850145,12.3639311 13.3514806,12.2303972 13.3514806,12.0300767 L13.3514806,11.6962223 L12.0160238,11.6962223 C11.8157033,11.6962223 11.6821694,11.5626883 11.6821694,11.3623679 C11.6821694,11.1620474 11.8157033,11.0285134 12.0160238,11.0285134 L13.6853741,11.0285134 Z" id="path-1"></path>
    </defs>
    <g id="vr-5" stroke="none" stroke-width="1" fill="none" fill-rule="evenodd">
        <g id="17---CRM" transform="translate(-75.000000, -1846.000000)">
            <g id="Group-3" transform="translate(49.000000, 1816.000000)">
                <g id="list/with-base/3-lines-text-with/icon-40/lead-+-status-in-calendar-view" transform="translate(16.000000, 16.000000)">
                    <g id="Group-2">
                        <g id="Group-6">
                            <g id="ico/vertical/line/car" transform="translate(8.000000, 8.000000)">
                                <mask id="mask-2" fill="white">
                                    <use xlink:href="#path-1"></use>
                                </mask>
                                <use id="icon" fill="#236DF1" fill-rule="evenodd" xlink:href="#path-1"></use>
                            </g>
                        </g>
                    </g>
                </g>
            </g>
        </g>
    </g>
</svg>