<?xml version="1.0" encoding="UTF-8"?>
<svg width="20px" height="12px" viewBox="0 0 20 12" version="1.1" xmlns="http://www.w3.org/2000/svg" xmlns:xlink="http://www.w3.org/1999/xlink">
    <!-- Generator: sketchtool 52.5 (67469) - http://www.bohemiancoding.com/sketch -->
    <title>38BB6311-9E28-44A9-9B92-1417146BF207</title>
    <desc>Created with sketchtool.</desc>
    <g id="vr-5" stroke="none" stroke-width="1" fill="none" fill-rule="evenodd">
        <g id="17---CRM" transform="translate(-75.000000, -2063.000000)" fill="#236DF1">
            <g id="list/with-base/2-lines-text-with/icon-40/56/with-price-copy-4" transform="translate(49.000000, 2041.000000)">
                <g id="Group-2" transform="translate(16.000000, 8.000000)">
                    <g id="Group-6">
                        <g id="ico/content/solid/mint_coin" transform="translate(8.000000, 8.000000)">
                            <path d="M10.5756098,16.1122927 C10.8682927,16.4683902 11.195122,16.7952195 11.5512195,17.0830244 C11.4439024,17.1171707 11.3365854,17.146439 11.2243902,17.1757073 C10.9121951,17.2537561 10.5902439,17.3220488 10.2634146,17.3757073 C9.93658537,17.4293659 9.6,17.4732683 9.26341463,17.4976585 C8.92682927,17.5269268 8.5902439,17.541561 8.25853659,17.541561 C7.32195122,17.541561 6.35609756,17.4293659 5.46829268,17.2196098 C5.35609756,17.1952195 5.24878049,17.1659512 5.14146341,17.1366829 C4.48780488,16.9659512 3.89268293,16.741561 3.4,16.4732683 C3.31707317,16.4293659 3.23902439,16.3854634 3.16097561,16.3366829 C2.44878049,15.8976585 2,15.3659512 2,14.7610732 C2,14.639122 2.02439024,14.5220488 2.05853659,14.4049756 C2.30731707,14.6342439 2.61463415,14.844 2.94634146,15.039122 C3.84878049,15.5659512 5.02926829,15.9610732 6.3902439,16.1513171 C7.0097561,16.239122 7.66829268,16.2879024 8.35121951,16.2879024 C9.13170732,16.2879024 9.87804878,16.2293659 10.5756098,16.1122927 Z M2.59995122,13.5999024 C2.34629268,13.3418537 2.17556098,13.0589268 2.12190244,12.7564878 C2.10726829,12.6828293 2.09263415,12.6101463 2.09263415,12.5320976 C2.09263415,12.4686829 2.10726829,12.4101463 2.11702439,12.351122 C2.14629268,12.3803902 2.18043902,12.4052683 2.20970732,12.4340488 C2.26336585,12.4779512 2.31214634,12.5218537 2.36580488,12.5662439 C2.62921951,12.7657561 2.93165854,12.951122 3.2682439,13.1223415 C3.59019512,13.2877073 3.94629268,13.4389268 4.32678049,13.5662439 C4.83897561,13.7467317 5.40482927,13.8828293 6.00482927,13.9852683 C6.73653659,14.1125854 7.52190244,14.1852683 8.35117073,14.1852683 C8.73165854,14.1852683 9.0975122,14.1706341 9.45360976,14.1413659 C9.59019512,14.5174634 9.75604878,14.8730732 9.95117073,15.2101463 C9.77068293,15.2345366 9.59019512,15.2540488 9.41458537,15.2681951 C9.0584878,15.3023415 8.70239024,15.3174634 8.35117073,15.3174634 C7.60970732,15.3174634 6.84873171,15.2438049 6.12190244,15.1125854 C5.63897561,15.0242927 5.17068293,14.9077073 4.73653659,14.7662439 C4.51702439,14.6974634 4.30726829,14.6199024 4.11214634,14.5364878 C3.71214634,14.376 3.35604878,14.1901463 3.0584878,13.9803902 L3.05360976,13.976 C3.02921951,13.960878 3.00970732,13.9413659 2.99019512,13.9267317 C2.84385366,13.8242927 2.71214634,13.7169756 2.59995122,13.5999024 Z M2.58541463,11.4829268 C2.32687805,11.2146341 2.16102439,10.922439 2.11712195,10.615122 C2.10736585,10.5512195 2.09273171,10.4931707 2.09273171,10.4292683 C2.09273171,8.7902439 5.39029268,7.64926829 8.35126829,7.64926829 C9.01956098,7.64926829 9.69760976,7.70731707 10.3512683,7.8195122 C9.52687805,8.94146341 9.04395122,10.3268293 9.04395122,11.8195122 C9.04395122,11.8829268 9.04395122,11.9463415 9.04882927,12.0097561 C9.05858537,12.4097561 9.1024878,12.8 9.18053659,13.1760976 C8.9024878,13.2004878 8.62443902,13.2146341 8.35126829,13.2146341 C7.35614634,13.2146341 6.322,13.0829268 5.39029268,12.8487805 L5.38053659,12.8487805 C5.06834146,12.7712195 4.76590244,12.6780488 4.48297561,12.5804878 C4.03419512,12.4195122 3.62443902,12.2341463 3.27321951,12.02 C3.00004878,11.8590244 2.77078049,11.6736585 2.58541463,11.4829268 Z M15.8146341,6 C19.0243902,6 21.6341463,8.6097561 21.6341463,11.8195122 C21.6341463,15.0243902 19.0243902,17.6341463 15.8146341,17.6341463 C12.6097561,17.6341463 10,15.0243902 10,11.8195122 C10,8.6097561 12.6097561,6 15.8146341,6 Z M13.8356851,11.1058707 L15.5307976,13.4516542 C15.70268,13.6895138 16.0555968,13.6810262 16.2161696,13.435171 L17.6643149,11.2178962 L17.6643149,13.9623662 C17.6643149,14.1964135 17.8513894,14.3861463 18.0821575,14.3861463 C18.3129255,14.3861463 18.5,14.1964135 18.5,13.9623662 L18.5,9.81074153 C18.5,9.39080149 17.9624636,9.22661607 17.7338071,9.57671513 L15.8504972,12.4602762 L13.7548641,9.56023199 C13.5161104,9.22983239 13,9.40110902 13,9.81074153 L13,13.9623662 C13,14.1964135 13.1870745,14.3861463 13.4178425,14.3861463 C13.6486106,14.3861463 13.8356851,14.1964135 13.8356851,13.9623662 L13.8356851,11.1058707 Z" id="icon"></path>
                        </g>
                    </g>
                </g>
            </g>
        </g>
    </g>
</svg>