<?xml version="1.0" encoding="UTF-8"?>
<svg width="20px" height="15px" viewBox="0 0 20 15" version="1.1" xmlns="http://www.w3.org/2000/svg" xmlns:xlink="http://www.w3.org/1999/xlink">
    <!-- Generator: sketchtool 52.5 (67469) - http://www.bohemiancoding.com/sketch -->
    <title>35F8C96B-2384-4D53-B377-6C32F39841C3</title>
    <desc>Created with sketchtool.</desc>
    <defs>
        <path d="M18.8181818,16.25 C18.0663636,16.25 17.4545455,16.8809375 17.4545455,17.65625 C17.4545455,18.4315625 18.0663636,19.0625 18.8181818,19.0625 C19.57,19.0625 20.1818182,18.4315625 20.1818182,17.65625 C20.1818182,16.8809375 19.57,16.25 18.8181818,16.25 Z M18.8181818,18.3659375 C18.5719933,18.3656026 18.3446791,18.2298487 18.2218661,18.0098131 C18.0990532,17.7897775 18.0993997,17.5188888 18.2227752,17.2991881 C18.3461507,17.0794874 18.5738115,16.9443526 18.82,16.9446875 C19.2005744,16.9452053 19.5086839,17.2637827 19.5081818,17.65625 C19.5076797,18.0487173 19.1987562,18.3664553 18.8181818,18.3659375 Z M21.9236364,14.5465625 C21.0317189,13.427501 19.6356782,12.8733448 18.2463636,13.086875 C18.1136364,12.1915625 17.3045455,11.0065625 16.5190909,10.0371875 L16.5190909,7.15625 C16.5194594,7.05031542 16.4720998,6.95021172 16.3909091,6.8853125 C16.3098255,6.82089731 16.2040271,6.79970184 16.1054545,6.828125 L15.5727273,6.9809375 C15.294672,7.06113552 15.0435783,7.21916058 14.8472727,7.4375 L14.5672727,6.0978125 C14.5354705,5.94167111 14.4019863,5.82982595 14.2472727,5.8296875 L13.6763636,5.8296875 L13.6763636,5.3403125 C13.6763636,5.1528125 13.5309091,5 13.3490909,5 C13.2618934,5.00024771 13.1783763,5.03627152 13.1169745,5.10011981 C13.0555727,5.1639681 13.0213348,5.25039111 13.0218182,5.3403125 L13.0218182,7.0521875 C13.0218182,7.2396875 13.1690909,7.3925 13.3490909,7.3925 C13.5309091,7.3925 13.6763636,7.2396875 13.6763636,7.0521875 L13.6763636,6.5103125 L13.9836364,6.5103125 L14.3863636,8.4378125 C14.2136364,8.6271875 14.0981818,8.8615625 14.0490909,9.119375 L13.1081818,10.195625 C12.9863653,10.3349939 12.996098,10.5495308 13.13,10.6765625 C13.1939663,10.7372392 13.2788592,10.7689228 13.3656656,10.7645173 C13.452472,10.7601118 13.5339381,10.7199854 13.5918182,10.653125 L14.16,10.0034375 C14.2009091,10.090625 14.2509091,10.173125 14.31,10.2509375 C14.68,10.7384375 15.1927273,11.481875 15.5309091,12.265625 C15.8945455,13.109375 15.9809091,13.8125 15.7863636,14.3525 C15.5027273,15.14 14.6709091,15.7465625 13.5627273,15.974375 C12.3790909,16.2171875 11.2081818,15.9575 10.6463636,15.329375 C10.3990909,15.0528125 10.2890909,14.778125 10.3081818,14.489375 C10.3427273,13.9765625 10.7809091,13.3615625 11.6109091,12.6603125 L11.6790909,12.5796875 C11.9354545,12.19625 11.9681818,11.7021875 11.7618182,11.2859375 C11.5568172,10.8670586 11.1404403,10.6030426 10.6854545,10.6034375 L5.96727273,10.6034375 C5.06545455,10.6034375 4.32363636,11.3290625 4.25090909,12.24875 C4.06272727,12.4475 3.62363636,12.933125 3.18181818,13.589375 C2.39727273,14.7471875 2,15.83 2,16.805 C2,16.9925 2.14636364,17.1453125 2.32727273,17.1453125 L3.44545455,17.1453125 L3.44363636,17.2203125 C3.44454545,18.753125 4.64272727,20 6.11545455,20 C7.33445913,19.9948112 8.39649716,19.1418981 8.7,17.924375 L16.2518182,17.924375 C16.555321,19.1418981 17.6173591,19.9948112 18.8363636,20 C20.3090909,20 21.5072727,18.753125 21.5072727,17.22125 C21.5072727,16.6596875 21.3454545,16.1375 21.0690909,15.6996875 L21.8763636,15.0303125 C21.9454137,14.9730262 21.9892964,14.8895713 21.9981822,14.798641 C22.0070681,14.7077108 21.9802144,14.6169046 21.9236364,14.5465625 Z M8.78909091,11.2840625 L10.6854545,11.2840625 C10.8981818,11.2840625 11.0827273,11.40125 11.18,11.5971875 C11.2522698,11.7390804 11.2634833,11.9057363 11.2109091,12.0565625 L8.78909091,12.0565625 L8.78909091,11.2840625 Z M5.96818182,11.2840625 L8.13454545,11.2840625 L8.13454545,12.0565625 L4.94909091,12.0565625 C5.08970534,11.5982968 5.50118144,11.2861076 5.96727273,11.2840625 L5.96818182,11.2840625 Z M6.11545455,19.319375 C5.56577121,19.3162493 5.04086007,19.0831685 4.66092018,18.6735056 C4.28098029,18.2638428 4.07855589,17.712688 4.1,17.14625 L4.79727273,17.14625 C4.77606184,17.5212403 4.90522171,17.888741 5.15448681,18.1626372 C5.40375191,18.4365333 5.75121432,18.5927521 6.11545455,18.5946875 C6.47969477,18.5927521 6.82715718,18.4365333 7.07642228,18.1626372 C7.32568738,17.888741 7.45484725,17.5212403 7.43363636,17.14625 L8.13090909,17.14625 L8.13272727,17.22125 C8.13625244,18.374568 7.23381293,19.3131773 6.11545455,19.319375 Z M5.44909091,17.22125 C5.44909091,17.1959375 5.45090909,17.1715625 5.45272727,17.14625 L6.77818182,17.14625 C6.79961628,17.3412591 6.73962178,17.5364673 6.61317549,17.6831424 C6.4867292,17.8298175 6.3057633,17.9141184 6.11545455,17.915 C5.74577814,17.9129341 5.44758067,17.6024812 5.44909091,17.22125 Z M8.26181818,16.4665625 L3.45727273,16.4665625 C3.56545455,16.14125 3.76545455,15.663125 4.11,15.2028125 C4.9,14.15 6.05454545,13.67 7.54090909,13.7796875 C8.2,13.8265625 8.61363636,14.0084375 8.77181818,14.3159375 C8.97818182,14.7190625 8.80636364,15.4409375 8.26181818,16.4665625 Z M14.8190909,17.2446875 L8.78636364,17.2446875 L8.78636364,17.22125 C8.78636364,17.118125 8.78090909,17.015 8.77,16.91375 C9.27636364,15.989375 9.78,14.84 9.34909091,13.99625 C9.07818182,13.4675 8.48545455,13.1665625 7.58727273,13.1009375 C5.43272727,12.9434375 4.21727273,13.9428125 3.57636364,14.8090625 C3.21248083,15.3066589 2.93925917,15.8682727 2.77,16.4665625 L2.67363636,16.4665625 C2.86,14.8071875 4.32545455,13.1440625 4.70727273,12.73625 L10.5545455,12.73625 C9.98818182,13.3390625 9.69272727,13.900625 9.65636364,14.4425 C9.62363636,14.9215625 9.79545455,15.37625 10.1672727,15.7925 C10.8872727,16.59875 12.27,16.9325 13.6890909,16.641875 C14.1490909,16.5471875 14.5709091,16.3934375 14.9418182,16.191875 C14.8609091,16.521875 14.8181818,16.866875 14.8181818,17.22125 L14.8181818,17.2446875 L14.8190909,17.2446875 Z M15.7463636,7.6371875 L15.8654545,7.6025 L15.8654545,9.2665625 C15.5290909,8.886875 15.2436364,8.58875 15.0836364,8.4228125 C15.1336364,8.0525 15.3927273,7.7384375 15.7472727,7.6371875 L15.7463636,7.6371875 Z M14.8227273,9.828125 C14.6509909,9.60496918 14.6265892,9.29707673 14.7609091,9.048125 C15.71,10.041875 17.5118182,12.14 17.6063636,13.2415625 C17.226148,13.3692111 16.8666829,13.5550343 16.54,13.7928125 C16.5581818,12.9059375 16.1854545,11.61875 14.8227273,9.8271875 L14.8227273,9.828125 Z M18.8363636,19.3184375 C17.7176496,19.3127549 16.8146581,18.3739946 16.8181818,17.2203125 C16.8181818,16.0634375 17.7236364,15.1221875 18.8363636,15.1221875 C19.954722,15.1283852 20.8571615,16.0669945 20.8536364,17.2203125 C20.8571601,18.3739946 19.9541686,19.3127549 18.8354545,19.3184375 L18.8363636,19.3184375 Z M20.6463636,15.179375 C20.1557156,14.7054274 19.5086392,14.4416588 18.8363636,14.4415625 C17.3636364,14.4415625 16.1645455,15.6884375 16.1645455,17.2203125 L16.1645455,17.24375 L15.4727273,17.24375 L15.4727273,17.2203125 C15.4727273,15.2909375 16.9818182,13.7215625 18.8363636,13.7215625 C19.7245455,13.7215625 20.5672727,14.0834375 21.1945455,14.7246875 L20.6463636,15.179375 Z" id="path-1"></path>
    </defs>
    <g id="vr-5" stroke="none" stroke-width="1" fill="none" fill-rule="evenodd">
        <g id="17---CRM" transform="translate(-75.000000, -1934.000000)">
            <g id="Group-3" transform="translate(49.000000, 1816.000000)">
                <g id="list/with-base/2-lines-text-with/icon-40/56/with-price" transform="translate(16.000000, 105.000000)">
                    <g id="Group">
                        <g id="Group-2">
                            <g id="Group-6">
                                <g id="ico/vertical/line/bike" transform="translate(8.000000, 8.000000)">
                                    <mask id="mask-2" fill="white">
                                        <use xlink:href="#path-1"></use>
                                    </mask>
                                    <use id="icon" fill="#236DF1" fill-rule="evenodd" xlink:href="#path-1"></use>
                                </g>
                            </g>
                        </g>
                    </g>
                </g>
            </g>
        </g>
    </g>
</svg>