<?xml version="1.0" encoding="UTF-8"?>
<svg width="18px" height="16px" viewBox="0 0 18 16" version="1.1" xmlns="http://www.w3.org/2000/svg" xmlns:xlink="http://www.w3.org/1999/xlink">
    <!-- Generator: sketchtool 52.5 (67469) - http://www.bohemiancoding.com/sketch -->
    <title>6E054B91-825C-4098-8921-132E974AF704</title>
    <desc>Created with sketchtool.</desc>
    <defs>
        <path d="M14.578125,8.340625 L13.009375,8.1125 L12.30625,6.690625 C12.18125,6.4375 11.815625,6.434375 11.690625,6.690625 L10.9875,8.1125 L9.41875,8.340625 C9.1375,8.38125 9.025,8.728125 9.228125,8.928125 L10.3625,10.034375 L10.09375,11.596875 C10.046875,11.875 10.340625,12.090625 10.59375,11.959375 L11.996875,11.221875 L13.4,11.959375 C13.65,12.090625 13.946875,11.878125 13.9,11.596875 L13.63125,10.034375 L14.765625,8.928125 C14.975,8.728125 14.859375,8.38125 14.578125,8.340625 Z M12.69375,9.728125 L12.85625,10.684375 L12,10.234375 L11.140625,10.684375 L11.303125,9.728125 L10.609375,9.053125 L11.56875,8.9125 L11.996875,8.04375 L12.425,8.9125 L13.384375,9.053125 L12.69375,9.728125 Z M17,6 L17,4.375 C17,4.16875 16.83125,4 16.625,4 L7.375,4 C7.16875,4 7,4.16875 7,4.375 L7,6 L3.375,6 C3.16875,6 3,6.16875 3,6.375 L3,8.3 C3,10.240625 5.128125,12.5 8.021875,12.928125 C8.940625,14.825 10.325,15.75 11.5,15.95625 L11.5,19 L8.8125,19 C8.3625,19 8,19.365625 8,19.815625 C8,19.91875 8.084375,20 8.1875,20 L15.8125,20 C15.915625,20 16,19.91875 16,19.815625 C16,19.365625 15.6375,19 15.1875,19 L12.5,19 L12.5,15.95625 C13.678125,15.75 15.059375,14.825 15.978125,12.928125 C18.875,12.5 21,10.2375 21,8.3 L21,6.375 C21,6.16875 20.83125,6 20.625,6 L17,6 Z M4,8.3 L4,7 L7,7 L7,7.75 C7,9.36875 7.21875,10.715625 7.578125,11.81875 C5.434375,11.265625 4,9.5625 4,8.3 Z M12,15 C9.75,15 8,11.75 8,7.75 L8,5 L16,5 L16,7.75 C16,11.75 14.25,15 12,15 Z M20,8.3 C20,9.5625 18.5625,11.265625 16.421875,11.81875 C16.78125,10.715625 17,9.36875 17,7.75 L17,7 L20,7 L20,8.3 Z" id="path-1"></path>
    </defs>
    <g id="vr-5" stroke="none" stroke-width="1" fill="none" fill-rule="evenodd">
        <g id="17---CRM" transform="translate(-77.000000, -2264.000000)">
            <g id="Group-4" transform="translate(50.000000, 2164.000000)">
                <g id="list/with-base/2-lines-text-with/icon-40/64/renewal-request-+-accept-green-copy-6" transform="translate(16.000000, 88.000000)">
                    <g id="Group">
                        <g id="Group-2">
                            <g id="Group-6">
                                <g id="line/trophy-alt" transform="translate(8.000000, 8.000000)">
                                    <mask id="mask-2" fill="white">
                                        <use xlink:href="#path-1"></use>
                                    </mask>
                                    <use id="trophy-alt" fill="#000000" fill-rule="nonzero" xlink:href="#path-1"></use>
                                    <g id="↳🎨product/236DF1" mask="url(#mask-2)" fill="#236DF1" fill-rule="evenodd">
                                        <rect id="swatch" x="0" y="0" width="24" height="24"></rect>
                                    </g>
                                </g>
                            </g>
                        </g>
                    </g>
                </g>
            </g>
        </g>
    </g>
</svg>